<svg xmlns="http://www.w3.org/2000/svg" viewBox="0 0 620 390" role="img" aria-label="TVMG icon mark">
  <rect width="620" height="390" fill="none"/>
  <path d="M75 78 H450 L400 120 H115 V311 H380 V171 H262 L300 131 H412 V360 H75 Q40 360 40 325 V113 Q40 78 75 78 Z" fill="#061B3F"/>
  <path d="M380 360 H505 Q535 360 535 330 V131 L505 161 V311 H425 Z" fill="#0B63CE"/>
  <path d="M452 54 L575 26 L552 150 L523 122 L438 194 L402 194 L500 96 Z" fill="#0B63CE"/>
  <path d="M415 196 L492 244 Q510 256 492 269 L415 317 Q395 330 395 306 V207 Q395 182 415 196 Z" fill="#0B63CE"/>
</svg>